<?xml version="1.0" standalone="no"?>
<!DOCTYPE svg PUBLIC "-//W3C//DTD SVG 20010904//EN"
 "http://www.w3.org/TR/2001/REC-SVG-20010904/DTD/svg10.dtd">
<svg version="1.0" xmlns="http://www.w3.org/2000/svg"
 width="1536.000000pt" height="237.000000pt" viewBox="0 0 1536.000000 237.000000"
 preserveAspectRatio="xMidYMid meet">
<metadata>
Created by potrace 1.15, written by Peter Selinger 2001-2017
</metadata>
<g transform="translate(0.000000,237.000000) scale(0.100000,-0.100000)"
fill="#e4022e" stroke="none">
<path d="M0 1185 l0 -1185 7680 0 7680 0 0 1185 0 1185 -7680 0 -7680 0 0
-1185z m6142 589 c80 -24 163 -72 207 -120 42 -45 96 -140 83 -147 -13 -8
-274 -87 -286 -87 -6 1 -20 15 -31 32 -37 59 -68 73 -155 73 -86 0 -120 -17
-120 -61 0 -37 37 -62 119 -80 201 -43 257 -59 321 -90 76 -38 132 -94 164
-163 17 -37 21 -65 21 -141 0 -82 -4 -103 -27 -152 -72 -154 -248 -241 -488
-241 -186 -1 -311 43 -410 142 -53 54 -107 146 -113 192 -2 21 6 24 148 50 83
16 157 28 166 29 9 0 22 -14 29 -30 33 -79 142 -124 249 -102 58 12 81 31 81
67 0 46 -48 71 -200 101 -174 34 -303 97 -360 176 -89 123 -75 310 33 434 45
51 153 109 232 123 33 6 71 13 85 15 45 8 197 -4 252 -20z m2595 0 c118 -31
227 -116 273 -213 13 -28 22 -53 19 -54 -6 -6 -275 -87 -287 -87 -5 0 -19 16
-31 35 -27 46 -88 74 -159 75 -87 0 -131 -34 -111 -88 11 -29 49 -44 179 -71
216 -45 317 -93 380 -178 46 -62 62 -117 62 -211 0 -73 -4 -91 -31 -146 -77
-156 -248 -239 -491 -239 -182 0 -294 39 -398 137 -52 49 -122 167 -122 206 0
12 36 21 165 44 91 16 166 27 168 25 1 -2 11 -21 21 -42 25 -49 85 -84 156
-93 107 -12 183 30 161 89 -13 32 -48 51 -126 67 -209 41 -316 83 -392 153
-67 62 -86 106 -91 212 -3 74 0 100 18 147 37 99 131 186 242 224 104 35 277
39 395 8z m5528 -5 c95 -29 182 -91 233 -167 23 -35 42 -72 42 -81 0 -14 -31
-27 -147 -62 -108 -32 -148 -40 -151 -31 -9 27 -57 75 -89 88 -51 22 -145 18
-177 -7 -34 -27 -35 -72 -2 -94 13 -9 88 -29 167 -46 251 -54 341 -105 401
-226 29 -59 33 -77 33 -148 0 -106 -23 -170 -86 -239 -56 -61 -151 -116 -249
-142 -80 -21 -271 -24 -350 -5 -96 23 -191 75 -248 135 -53 56 -118 175 -109
199 4 11 280 68 323 67 6 0 17 -14 24 -30 19 -47 72 -87 133 -100 106 -24 208
14 193 73 -10 41 -46 58 -203 94 -182 41 -273 83 -337 154 -59 66 -80 133 -74
238 9 154 106 273 263 326 116 39 292 41 410 4z m-12620 -17 c63 -29 119 -83
153 -147 21 -41 26 -64 26 -130 1 -70 -3 -86 -28 -133 -29 -51 -64 -85 -119
-114 l-29 -14 42 -13 c64 -19 135 -95 156 -167 32 -111 -7 -267 -86 -338 -21
-18 -64 -44 -96 -57 -57 -23 -69 -23 -421 -27 l-363 -4 0 587 0 586 358 -3
c348 -3 358 -4 407 -26z m1456 -547 c98 -314 179 -576 179 -582 0 -10 -43 -13
-183 -13 l-184 0 -17 63 c-9 34 -24 86 -32 115 l-15 52 -153 0 -152 0 -35
-112 -34 -113 -148 -3 c-81 -1 -147 1 -147 6 0 7 342 1116 355 1150 3 10 48
12 196 10 l192 -3 178 -570z m1439 440 l0 -135 -262 -2 -263 -3 -3 -82 -3 -83
216 0 215 0 0 -130 0 -130 -212 -2 -213 -3 0 -90 0 -90 263 -3 262 -2 0 -140
0 -140 -440 0 -440 0 0 585 0 585 440 0 440 0 0 -135z m2665 -51 c87 -166 100
-185 111 -169 7 10 52 94 99 186 l86 169 160 0 160 0 -40 -72 c-22 -40 -104
-190 -183 -333 l-143 -260 -3 -252 -3 -253 -174 0 -175 0 0 247 0 247 -192
330 c-106 181 -194 333 -196 338 -2 4 86 8 195 8 l199 0 99 -186z m3005 41 l0
-145 -120 0 -120 0 0 -440 0 -440 -170 0 -170 0 0 440 0 440 -125 0 -125 0 0
145 0 145 415 0 415 0 0 -145z m1260 10 l0 -135 -260 0 -260 0 0 -85 0 -85
210 0 210 0 0 -130 0 -130 -210 0 -210 0 0 -95 0 -95 260 0 260 0 0 -140 0
-140 -435 0 -435 0 0 585 0 585 435 0 435 0 0 -135z m924 83 c8 -29 45 -163
82 -298 36 -135 67 -246 69 -248 2 -2 30 101 106 396 l52 202 238 0 239 0 0
-585 0 -585 -170 0 -170 0 -2 400 -3 401 -90 -353 c-49 -194 -95 -375 -103
-401 l-14 -48 -116 3 -116 3 -107 400 -108 400 0 -402 -1 -403 -135 0 -135 0
0 585 0 585 234 0 235 0 15 -52z"/>
<path d="M1210 1431 l0 -101 100 0 c120 0 153 13 170 65 15 47 -1 97 -38 115
-15 7 -73 15 -129 18 l-103 4 0 -101z"/>
<path d="M1210 976 l0 -106 103 0 c77 0 110 4 137 18 65 32 79 101 31 154
l-29 33 -121 3 -121 4 0 -106z"/>
<path d="M2649 1268 l-45 -163 48 -3 c27 -2 68 -2 92 0 l43 3 -42 150 c-23 83
-44 156 -46 163 -3 8 -25 -60 -50 -150z"/>
</g>
</svg>
