<?xml version="1.0" standalone="no"?>
<!DOCTYPE svg PUBLIC "-//W3C//DTD SVG 20010904//EN"
 "http://www.w3.org/TR/2001/REC-SVG-20010904/DTD/svg10.dtd">
<svg version="1.0" xmlns="http://www.w3.org/2000/svg"
 width="1393.000000pt" height="351.000000pt" viewBox="0 0 1393.000000 351.000000"
 preserveAspectRatio="xMidYMid meet">
<metadata>
Created by potrace 1.15, written by Peter Selinger 2001-2017
</metadata>
<g transform="translate(0.000000,351.000000) scale(0.100000,-0.100000)"
fill="#7f458a" stroke="none">
<path d="M4291 3329 c-338 -30 -605 -201 -737 -471 -16 -32 -31 -58 -34 -58
-3 0 -16 21 -29 48 -37 76 -103 162 -184 238 -110 105 -234 173 -396 216 -110
29 -355 36 -474 14 -414 -78 -680 -367 -762 -827 l-17 -95 -60 29 c-96 45
-196 66 -448 91 -292 30 -322 40 -336 114 -9 48 16 93 69 123 42 24 46 24 363
27 l320 3 18 48 c28 78 113 208 189 288 74 78 128 121 223 178 l58 35 -568 0
c-533 0 -574 -1 -669 -21 -197 -40 -337 -110 -457 -229 -131 -130 -190 -279
-190 -477 0 -197 49 -334 159 -444 125 -125 251 -166 629 -203 241 -24 278
-33 315 -74 24 -26 32 -85 17 -122 -16 -37 -59 -65 -135 -85 -46 -11 -116 -15
-305 -15 -136 0 -342 -3 -458 -7 l-212 -6 0 -279 0 -278 463 0 c606 0 703 13
926 122 91 43 117 62 193 138 l87 88 88 -87 c123 -121 264 -192 473 -237 62
-14 164 -17 603 -21 l527 -5 0 254 1 253 36 -70 c27 -50 66 -99 138 -171 89
-89 111 -106 205 -152 218 -107 294 -114 1080 -110 588 4 618 5 690 25 108 30
176 63 253 121 l67 51 0 -100 0 -99 328 2 327 3 -4 785 c-3 838 -5 860 -54
992 -36 94 -83 163 -163 238 -79 74 -172 126 -292 164 -154 48 -253 59 -547
60 -252 1 -275 0 -340 -21 -210 -66 -325 -232 -349 -500 l-6 -73 444 0 c486 0
527 -4 582 -52 40 -36 54 -79 54 -175 l0 -71 -317 -4 c-293 -4 -324 -6 -393
-27 -137 -41 -217 -86 -300 -170 -122 -123 -173 -251 -173 -438 l0 -103 -236
0 c-263 0 -289 6 -359 73 -86 82 -116 197 -116 442 0 298 48 421 192 492 56
27 62 28 253 31 l196 4 6 91 c14 212 100 387 234 476 l46 31 -319 -1 c-175 -1
-361 -6 -413 -10z m-1493 -584 c30 -16 65 -43 79 -60 39 -45 74 -128 80 -190
l6 -55 -327 0 -326 0 0 33 c0 88 62 208 129 253 69 45 108 55 211 51 83 -2
102 -6 148 -32z m636 -761 c3 -9 6 -26 6 -39 0 -22 51 -233 65 -266 6 -15 -30
-17 -397 -24 -443 -8 -514 -3 -607 42 -103 50 -175 148 -188 254 l-6 49 561 0
c501 0 560 -2 566 -16z m2556 -61 c0 -101 -13 -145 -56 -193 -52 -57 -110 -81
-209 -88 -97 -6 -165 8 -212 44 -81 61 -90 171 -22 249 48 54 94 63 312 64
l187 1 0 -77z"/>
<path d="M8220 3295 c0 -25 -3 -45 -6 -45 -4 0 -39 12 -78 26 -56 21 -96 27
-187 31 -193 9 -347 -35 -484 -140 l-60 -45 -3 84 -3 84 -314 0 -315 0 0
-1100 0 -1100 323 2 322 3 5 720 5 720 22 42 c43 80 136 132 238 132 71 1 125
-21 183 -73 l40 -37 109 113 c60 62 130 136 156 163 l47 50 0 -912 0 -913 335
0 335 0 0 698 c0 765 -1 757 59 839 42 58 120 94 204 95 114 1 203 -56 249
-156 l23 -51 3 -712 3 -713 334 0 335 0 0 708 0 708 26 52 c49 99 158 163 284
166 92 2 148 -32 187 -111 l28 -58 3 -732 3 -733 334 0 335 0 0 119 0 118 88
-87 c101 -100 199 -156 341 -191 114 -29 303 -24 400 10 73 25 181 92 225 140
17 17 33 31 38 31 4 0 8 -45 8 -100 l0 -100 325 0 325 0 0 783 c0 734 -1 788
-20 876 -64 313 -265 491 -640 568 -74 15 -163 17 -670 21 l-584 3 51 -41
c114 -90 210 -254 246 -419 l22 -99 360 -5 c380 -4 405 -7 475 -53 57 -38 83
-94 88 -191 l5 -83 -237 0 c-282 0 -399 -12 -523 -51 -104 -33 -221 -105 -276
-169 -19 -22 -36 -40 -40 -40 -3 0 -7 129 -9 288 -5 327 -14 379 -88 521 -101
194 -239 306 -447 363 -112 31 -362 31 -478 0 -103 -28 -207 -80 -297 -147
l-72 -54 -46 43 c-105 98 -221 153 -370 177 -192 30 -422 -29 -572 -147 l-58
-45 0 100 0 101 -325 0 -325 0 0 -45z m4158 -1437 c-5 -111 -27 -161 -90 -207
-56 -42 -105 -54 -213 -55 -78 -1 -97 2 -140 25 -59 30 -91 74 -100 134 -12
78 43 161 123 185 15 5 116 9 226 9 l198 1 -4 -92z"/>
<path d="M13175 3262 c-72 -34 -106 -90 -107 -169 0 -190 269 -249 352 -78 58
119 -20 253 -153 262 -36 3 -64 -2 -92 -15z m162 -53 c14 -13 31 -36 39 -51
41 -79 -14 -192 -96 -198 -65 -5 -83 1 -121 39 -36 35 -39 43 -39 92 0 65 23
108 71 132 46 24 112 17 146 -14z"/>
<path d="M13187 3183 c-4 -3 -7 -46 -7 -95 0 -85 1 -88 23 -88 19 0 23 5 22
33 0 27 3 32 25 32 19 0 26 -7 34 -32 7 -25 14 -33 32 -33 29 0 30 14 6 60
-16 33 -16 36 0 52 22 22 12 57 -19 69 -28 10 -107 12 -116 2z"/></g><g transform="translate(0.000000,351.000000) scale(0.100000,-0.100000)"
fill="#000000" stroke="none">
<path d="M12745 705 c-116 -41 -140 -187 -40 -241 22 -12 81 -31 132 -44 51
-12 100 -30 112 -41 21 -19 27 -61 15 -94 -10 -26 -60 -45 -119 -45 -85 0
-145 41 -145 97 0 20 -5 23 -36 23 l-37 0 6 -40 c12 -88 91 -143 206 -143 117
1 192 49 206 133 15 89 -46 146 -188 177 -106 23 -137 43 -137 87 0 45 30 73
84 81 74 11 128 -21 150 -87 3 -12 16 -18 36 -18 26 0 30 3 30 29 0 41 -39 93
-90 119 -51 26 -124 29 -185 7z"/>
<path d="M335 695 c-121 -43 -185 -210 -140 -363 32 -105 110 -161 228 -162
119 0 206 70 218 175 4 28 2 30 -31 30 -27 0 -36 -5 -38 -20 -8 -42 -35 -85
-67 -105 -39 -24 -113 -27 -155 -5 -92 48 -126 213 -66 321 24 44 92 84 141
84 52 -1 110 -34 129 -74 15 -31 22 -36 51 -36 19 0 35 5 35 10 0 27 -30 78
-63 107 -60 52 -158 68 -242 38z"/>
<path d="M3601 689 c-54 -28 -81 -70 -81 -129 0 -81 33 -107 186 -145 107 -26
144 -51 144 -97 0 -59 -72 -97 -161 -85 -54 7 -88 32 -108 78 -14 34 -20 39
-48 39 -39 0 -42 -15 -14 -76 30 -67 101 -104 195 -104 73 0 123 17 163 54 31
28 37 40 40 87 7 97 -31 131 -192 171 -132 32 -165 72 -111 135 22 25 30 28
89 28 73 0 99 -16 124 -72 11 -27 19 -33 44 -33 31 0 31 1 26 37 -7 42 -30 77
-71 107 -42 32 -166 35 -225 5z"/>
<path d="M4910 687 c-50 -25 -103 -94 -120 -155 -5 -20 -10 -62 -10 -93 0
-176 107 -281 270 -266 99 9 167 68 188 165 l10 42 -38 0 c-35 0 -38 -2 -44
-35 -19 -101 -148 -148 -236 -85 -112 80 -99 313 21 375 69 36 171 7 202 -57
16 -33 23 -38 54 -38 33 0 35 1 28 28 -11 48 -52 99 -97 121 -62 30 -167 29
-228 -2z"/>
<path d="M9464 695 c3 -9 40 -66 82 -126 42 -62 73 -116 70 -124 -3 -8 -41
-68 -86 -134 -44 -66 -80 -123 -80 -126 0 -3 17 -5 39 -5 38 0 39 2 107 105
38 57 71 104 74 104 3 0 35 -47 72 -105 l68 -104 41 0 c31 0 40 3 36 14 -3 8
-42 67 -86 131 -45 64 -81 121 -81 126 0 6 36 63 80 128 44 65 80 121 80 125
0 3 -17 6 -37 6 -37 0 -40 -3 -103 -100 -36 -55 -67 -100 -70 -100 -3 0 -32
44 -66 98 -60 96 -61 97 -104 100 -36 3 -42 1 -36 -13z"/>
<path d="M10127 703 c-3 -5 -2 -124 1 -266 l5 -258 31 3 31 3 3 107 3 106 119
4 120 3 32 33 c32 31 33 35 33 112 0 73 -2 81 -29 109 -19 20 -45 34 -78 40
-56 12 -264 15 -271 4z m288 -88 c19 -18 25 -35 25 -65 0 -30 -6 -47 -25 -65
-22 -23 -32 -25 -120 -25 l-95 0 0 90 0 90 95 0 c88 0 98 -2 120 -25z"/>
<path d="M10775 698 c-3 -8 -4 -126 -3 -263 l3 -250 180 0 180 0 3 33 3 32
-145 0 -146 0 0 85 0 84 133 3 132 3 3 28 3 27 -135 0 -136 0 0 80 0 79 143 3
142 3 0 30 0 30 -178 3 c-138 2 -179 0 -182 -10z"/>
<path d="M11400 450 l0 -260 35 0 35 0 0 111 0 111 100 -4 c127 -4 138 -12
151 -123 6 -43 12 -82 15 -87 3 -4 23 -8 46 -8 32 0 38 3 30 13 -6 7 -13 37
-17 67 -11 103 -15 118 -40 144 l-25 27 32 28 c27 24 32 36 36 88 4 58 3 63
-29 97 -43 47 -80 55 -241 56 l-128 0 0 -260z m303 173 c39 -44 29 -120 -19
-142 -14 -6 -67 -11 -119 -11 l-95 0 0 85 0 85 108 0 c91 0 111 -3 125 -17z"/>
<path d="M12004 696 c-3 -8 -4 -23 -2 -33 3 -15 16 -18 91 -21 l87 -3 0 -224
0 -225 35 0 35 0 0 225 0 225 85 0 85 0 0 35 0 35 -205 0 c-170 0 -207 -3
-211 -14z"/>
<path d="M864 685 c3 -8 46 -77 96 -153 l90 -139 0 -106 0 -107 40 0 40 0 0
108 0 107 95 148 c52 81 95 149 95 152 0 3 -18 5 -39 5 l-39 0 -73 -119 c-40
-66 -76 -118 -80 -115 -4 2 -39 56 -78 119 l-72 115 -41 0 c-32 0 -39 -3 -34
-15z"/>
<path d="M1560 441 l0 -261 148 0 c123 0 153 3 182 18 37 20 80 89 80 129 0
40 -28 93 -58 110 l-30 17 28 27 c52 52 49 127 -7 181 l-34 33 -155 3 -154 4
0 -261z m289 175 c14 -13 21 -31 21 -55 0 -66 -27 -81 -149 -81 l-91 0 0 81 0
81 99 -4 c80 -3 104 -7 120 -22z m19 -226 c28 -27 30 -88 3 -121 -18 -22 -28
-24 -130 -27 l-111 -4 0 86 0 86 108 0 c95 0 111 -2 130 -20z"/>
<path d="M2237 693 c-4 -3 -7 -120 -7 -260 l0 -253 185 0 185 0 0 30 0 30
-145 0 -145 0 0 85 0 85 58 0 c33 0 94 3 136 7 76 6 77 6 74 32 l-3 26 -132 3
-133 3 0 79 0 80 140 0 140 0 0 30 0 30 -173 0 c-96 0 -177 -3 -180 -7z"/>
<path d="M2860 440 l0 -260 35 0 35 0 0 110 0 110 100 0 c134 0 137 -3 154
-153 8 -64 10 -67 55 -67 l39 0 -14 38 c-7 20 -13 56 -14 80 0 51 -21 106 -47
121 -17 9 -17 11 6 27 48 34 66 127 35 185 -28 54 -78 69 -241 69 l-143 0 0
-260z m284 189 c34 -16 51 -61 40 -102 -14 -49 -60 -67 -166 -67 l-88 0 0 90
0 90 95 0 c52 0 105 -5 119 -11z"/>
<path d="M4180 440 l0 -260 185 0 185 0 0 30 0 30 -144 0 -143 0 -6 82 c-3 45
-3 86 -1 90 3 5 63 8 135 8 l129 0 0 30 0 30 -135 0 -135 0 0 80 0 80 145 0
145 0 0 30 0 30 -180 0 -180 0 0 -260z"/>
<path d="M5501 503 c5 -239 12 -261 100 -306 47 -25 63 -28 124 -25 90 5 138
28 170 83 24 41 25 47 25 243 l0 202 -35 0 -35 0 0 -186 c0 -149 -3 -193 -16
-219 -41 -87 -196 -83 -241 6 -9 16 -13 83 -13 212 l0 187 -41 0 -41 0 3 -197z"/>
<path d="M6210 440 l0 -260 35 0 35 0 0 110 0 111 106 -3 c101 -3 108 -4 125
-28 11 -14 21 -51 24 -85 11 -106 10 -105 56 -105 35 0 40 2 34 18 -5 9 -13
54 -20 99 -11 77 -24 108 -53 126 -10 6 -6 14 13 29 33 26 47 60 47 116 0 50
-20 85 -65 112 -28 17 -51 20 -184 20 l-153 0 0 -260z m305 175 c33 -33 34
-87 1 -120 -25 -25 -111 -40 -191 -33 l-40 3 -3 88 -3 87 106 0 c99 0 107 -2
130 -25z"/>
<path d="M6890 440 l0 -260 35 0 35 0 0 260 0 260 -35 0 -35 0 0 -260z"/>
<path d="M7200 670 l0 -30 85 0 85 0 0 -231 0 -230 38 3 37 3 -4 227 -3 227
88 3 c89 3 89 3 92 31 l3 27 -210 0 -211 0 0 -30z"/>
<path d="M7800 695 c0 -3 42 -67 93 -143 l92 -137 5 -115 5 -115 35 0 35 0 3
108 3 107 94 145 c52 80 95 148 95 150 0 3 -18 5 -39 5 l-39 0 -72 -117 c-40
-65 -73 -119 -74 -120 -1 -1 -36 51 -77 117 l-74 120 -42 0 c-24 0 -43 -2 -43
-5z"/>
<path d="M8882 443 l3 -258 178 -3 177 -2 0 35 0 35 -145 0 -145 0 0 85 0 85
135 0 135 0 0 30 0 29 -132 3 -133 3 -3 78 -3 77 146 0 145 0 0 30 0 30 -180
0 -180 0 2 -257z"/>
</g>
</svg>
